<mxfile host="app.diagrams.net" agent="Mozilla/5.0 (Windows NT 10.0; Win64; x64) AppleWebKit/537.36 (KHTML, like Gecko) Chrome/134.0.0.0 Safari/537.36" version="26.0.13">
  <diagram name="Trang-1" id="2pS3tWXjDAJYHhUBd7QM">
    <mxGraphModel dx="1247" dy="642" grid="1" gridSize="10" guides="1" tooltips="1" connect="1" arrows="1" fold="1" page="1" pageScale="1" pageWidth="827" pageHeight="1169" math="0" shadow="0">
      <root>
        <mxCell id="0" />
        <mxCell id="1" parent="0" />
        <mxCell id="0iXRyFwd7yivToQyE3zZ-1" value="cách tắm cho trẻ sơ sinh" style="ellipse;whiteSpace=wrap;html=1;" parent="1" vertex="1">
          <mxGeometry x="414" y="370" width="120" height="80" as="geometry" />
        </mxCell>
        <mxCell id="ERd9sEX2CpOIl4KHAQx0-1" value="&lt;div&gt;tắm cho trẻ sơ sinh trước hay sau khi ăn&lt;/div&gt;" style="ellipse;whiteSpace=wrap;html=1;" vertex="1" parent="1">
          <mxGeometry x="290" y="150" width="120" height="80" as="geometry" />
        </mxCell>
        <mxCell id="ERd9sEX2CpOIl4KHAQx0-2" value="&lt;div&gt;nên tắm cho trẻ sơ sinh lúc mấy giờ&lt;/div&gt;" style="ellipse;whiteSpace=wrap;html=1;" vertex="1" parent="1">
          <mxGeometry x="120" y="220" width="120" height="80" as="geometry" />
        </mxCell>
        <mxCell id="ERd9sEX2CpOIl4KHAQx0-3" value="Nhiệt độ nước tắm cho trẻ sơ sinh" style="ellipse;whiteSpace=wrap;html=1;" vertex="1" parent="1">
          <mxGeometry x="110" y="360" width="120" height="80" as="geometry" />
        </mxCell>
        <mxCell id="ERd9sEX2CpOIl4KHAQx0-4" value="Có nên tắm cho trẻ sau khi tiêm phòng" style="ellipse;whiteSpace=wrap;html=1;" vertex="1" parent="1">
          <mxGeometry x="650" y="200" width="120" height="80" as="geometry" />
        </mxCell>
        <mxCell id="ERd9sEX2CpOIl4KHAQx0-6" value="&lt;div&gt;Khi trẻ bị sốt có nên tắm không&lt;/div&gt;" style="ellipse;whiteSpace=wrap;html=1;" vertex="1" parent="1">
          <mxGeometry x="700" y="340" width="120" height="80" as="geometry" />
        </mxCell>
        <mxCell id="ERd9sEX2CpOIl4KHAQx0-7" value="&lt;div&gt;Trẻ bị ho sổ mũi có nên tắm không&lt;/div&gt;" style="ellipse;whiteSpace=wrap;html=1;" vertex="1" parent="1">
          <mxGeometry x="790" y="505" width="120" height="80" as="geometry" />
        </mxCell>
        <mxCell id="ERd9sEX2CpOIl4KHAQx0-8" value="Cách tắm cho trẻ sơ sinh chưa rụng rốn" style="ellipse;whiteSpace=wrap;html=1;" vertex="1" parent="1">
          <mxGeometry x="490" y="150" width="120" height="80" as="geometry" />
        </mxCell>
        <mxCell id="ERd9sEX2CpOIl4KHAQx0-9" value="Tắm lá gì cho trẻ sơ sinh rụng lông" style="ellipse;whiteSpace=wrap;html=1;" vertex="1" parent="1">
          <mxGeometry x="370" y="580" width="120" height="80" as="geometry" />
        </mxCell>
        <mxCell id="ERd9sEX2CpOIl4KHAQx0-10" value="trẻ bị sốt phát ban tắm lá gì" style="ellipse;whiteSpace=wrap;html=1;" vertex="1" parent="1">
          <mxGeometry x="580" y="570" width="120" height="80" as="geometry" />
        </mxCell>
        <mxCell id="ERd9sEX2CpOIl4KHAQx0-11" value="&lt;div&gt;Tắm bia cho trẻ sơ sinh&lt;/div&gt;" style="ellipse;whiteSpace=wrap;html=1;" vertex="1" parent="1">
          <mxGeometry x="160" y="530" width="120" height="80" as="geometry" />
        </mxCell>
        <mxCell id="ERd9sEX2CpOIl4KHAQx0-13" value="" style="endArrow=classic;startArrow=classic;html=1;rounded=0;entryX=0.417;entryY=1;entryDx=0;entryDy=0;entryPerimeter=0;" edge="1" parent="1" source="0iXRyFwd7yivToQyE3zZ-1" target="ERd9sEX2CpOIl4KHAQx0-8">
          <mxGeometry width="50" height="50" relative="1" as="geometry">
            <mxPoint x="430" y="420" as="sourcePoint" />
            <mxPoint x="480" y="370" as="targetPoint" />
          </mxGeometry>
        </mxCell>
        <mxCell id="ERd9sEX2CpOIl4KHAQx0-17" value="" style="endArrow=classic;startArrow=classic;html=1;rounded=0;exitX=0.977;exitY=0.633;exitDx=0;exitDy=0;exitPerimeter=0;" edge="1" parent="1" source="0iXRyFwd7yivToQyE3zZ-1" target="ERd9sEX2CpOIl4KHAQx0-7">
          <mxGeometry width="50" height="50" relative="1" as="geometry">
            <mxPoint x="530.68" y="440" as="sourcePoint" />
            <mxPoint x="749.68" y="391" as="targetPoint" />
          </mxGeometry>
        </mxCell>
        <mxCell id="ERd9sEX2CpOIl4KHAQx0-19" value="" style="endArrow=classic;html=1;rounded=0;entryX=0.963;entryY=0.415;entryDx=0;entryDy=0;entryPerimeter=0;exitX=-0.004;exitY=0.573;exitDx=0;exitDy=0;exitPerimeter=0;" edge="1" parent="1" source="ERd9sEX2CpOIl4KHAQx0-6" target="0iXRyFwd7yivToQyE3zZ-1">
          <mxGeometry width="50" height="50" relative="1" as="geometry">
            <mxPoint x="630" y="410" as="sourcePoint" />
            <mxPoint x="680" y="360" as="targetPoint" />
          </mxGeometry>
        </mxCell>
        <mxCell id="ERd9sEX2CpOIl4KHAQx0-20" value="" style="endArrow=classic;html=1;rounded=0;entryX=1;entryY=0;entryDx=0;entryDy=0;exitX=0;exitY=1;exitDx=0;exitDy=0;" edge="1" parent="1" source="ERd9sEX2CpOIl4KHAQx0-4" target="0iXRyFwd7yivToQyE3zZ-1">
          <mxGeometry width="50" height="50" relative="1" as="geometry">
            <mxPoint x="730.44" y="300" as="sourcePoint" />
            <mxPoint x="520.44" y="353" as="targetPoint" />
          </mxGeometry>
        </mxCell>
        <mxCell id="ERd9sEX2CpOIl4KHAQx0-21" value="" style="endArrow=classic;startArrow=classic;html=1;rounded=0;" edge="1" parent="1" source="ERd9sEX2CpOIl4KHAQx0-3" target="0iXRyFwd7yivToQyE3zZ-1">
          <mxGeometry width="50" height="50" relative="1" as="geometry">
            <mxPoint x="481.96" y="591" as="sourcePoint" />
            <mxPoint x="533.96" y="450" as="targetPoint" />
          </mxGeometry>
        </mxCell>
        <mxCell id="ERd9sEX2CpOIl4KHAQx0-22" value="" style="endArrow=classic;startArrow=classic;html=1;rounded=0;exitX=0.286;exitY=0.067;exitDx=0;exitDy=0;entryX=0.76;entryY=0.926;entryDx=0;entryDy=0;entryPerimeter=0;exitPerimeter=0;" edge="1" parent="1" source="ERd9sEX2CpOIl4KHAQx0-10" target="0iXRyFwd7yivToQyE3zZ-1">
          <mxGeometry width="50" height="50" relative="1" as="geometry">
            <mxPoint x="404.88" y="560.04" as="sourcePoint" />
            <mxPoint x="339.88" y="426.04" as="targetPoint" />
          </mxGeometry>
        </mxCell>
        <mxCell id="ERd9sEX2CpOIl4KHAQx0-26" value="" style="endArrow=classic;startArrow=classic;html=1;rounded=0;exitX=0.5;exitY=0;exitDx=0;exitDy=0;entryX=0.5;entryY=1;entryDx=0;entryDy=0;" edge="1" parent="1" source="ERd9sEX2CpOIl4KHAQx0-9" target="0iXRyFwd7yivToQyE3zZ-1">
          <mxGeometry width="50" height="50" relative="1" as="geometry">
            <mxPoint x="508.8" y="579.64" as="sourcePoint" />
            <mxPoint x="399.8" y="448.64" as="targetPoint" />
          </mxGeometry>
        </mxCell>
        <mxCell id="ERd9sEX2CpOIl4KHAQx0-27" value="" style="endArrow=classic;html=1;rounded=0;entryX=0;entryY=1;entryDx=0;entryDy=0;exitX=1;exitY=0;exitDx=0;exitDy=0;" edge="1" parent="1" source="ERd9sEX2CpOIl4KHAQx0-11" target="0iXRyFwd7yivToQyE3zZ-1">
          <mxGeometry width="50" height="50" relative="1" as="geometry">
            <mxPoint x="420.44" y="470.15999999999997" as="sourcePoint" />
            <mxPoint x="250.44" y="487.15999999999997" as="targetPoint" />
          </mxGeometry>
        </mxCell>
        <mxCell id="ERd9sEX2CpOIl4KHAQx0-28" value="" style="endArrow=classic;startArrow=classic;html=1;rounded=0;exitX=1;exitY=0.5;exitDx=0;exitDy=0;entryX=0;entryY=0;entryDx=0;entryDy=0;" edge="1" parent="1" source="ERd9sEX2CpOIl4KHAQx0-2" target="0iXRyFwd7yivToQyE3zZ-1">
          <mxGeometry width="50" height="50" relative="1" as="geometry">
            <mxPoint x="250.07" y="290.07" as="sourcePoint" />
            <mxPoint x="434.07" y="296.07" as="targetPoint" />
          </mxGeometry>
        </mxCell>
        <mxCell id="ERd9sEX2CpOIl4KHAQx0-29" value="" style="endArrow=classic;html=1;rounded=0;entryX=0.383;entryY=0.035;entryDx=0;entryDy=0;exitX=1;exitY=1;exitDx=0;exitDy=0;entryPerimeter=0;" edge="1" parent="1" source="ERd9sEX2CpOIl4KHAQx0-1" target="0iXRyFwd7yivToQyE3zZ-1">
          <mxGeometry width="50" height="50" relative="1" as="geometry">
            <mxPoint x="289.57" y="340.28" as="sourcePoint" />
            <mxPoint x="459.57" y="236.28" as="targetPoint" />
          </mxGeometry>
        </mxCell>
      </root>
    </mxGraphModel>
  </diagram>
</mxfile>
